HIERARCHY
ROOT Hips
{
	OFFSET 0.000000 0.000000 0.000000 
	CHANNELS 6 Xposition Yposition Zposition Yrotation Zrotation Xrotation 
	JOINT Lumbar
	{
		OFFSET 0.000000 0.000000 0.000000 
		CHANNELS 3 Zrotation Xrotation Yrotation
		JOINT Neck
		{
			OFFSET 0.000000 0.445665 0.000000 
			CHANNELS 3 Zrotation Xrotation Yrotation
			End Site
			{
				OFFSET 0.000000 0.227535 0.000000 
			}
		}
		JOINT RightShoulder
		{
			OFFSET 0.019635 0.377685 0.194865 
			CHANNELS 3 Zrotation Xrotation Yrotation
			JOINT RightElbow
			{
				OFFSET 0.000000 -0.243375 0.000000 
				CHANNELS 2 Zrotation Yrotation
				JOINT RightWrist
				{
					OFFSET 0.000000 -0.264825 0.000000 
					CHANNELS 2 Zrotation Xrotation
					End Site
					{
						OFFSET 0.006600 -0.176220 0.000990 
					}
				}
			}
		}
		JOINT LeftShoulder
		{
			OFFSET 0.019635 0.377685 -0.194865 
			CHANNELS 3 Zrotation Xrotation Yrotation
			JOINT LeftElbow
			{
				OFFSET 0.000000 -0.243375 0.000000 
				CHANNELS 2 Zrotation Yrotation
				JOINT LeftWrist
				{
					OFFSET 0.000000 -0.264825 0.000000 
					CHANNELS 2 Zrotation Xrotation
					End Site
					{
						OFFSET 0.006600 -0.176220 -0.000990 
					}
				}
			}
		}
	}
	JOINT RightHip
	{
		OFFSET 0.052140 -0.069960 0.075570 
		CHANNELS 3 Zrotation Xrotation Yrotation
		JOINT RightKnee
		{
			OFFSET 0.000000 -0.402270 0.000000 
			CHANNELS 1 Zrotation
			JOINT RightAnkle
			{
				OFFSET 0.000000 -0.404085 0.000000 
				CHANNELS 3 Zrotation Xrotation Yrotation
				End Site
				{
					OFFSET 0.204105 -0.089430 0.008415 
				}
			}
		}
	}
	JOINT LeftHip
	{
		OFFSET 0.052140 -0.069960 -0.075570 
		CHANNELS 3 Zrotation Xrotation Yrotation
		JOINT LeftKnee
		{
			OFFSET 0.000000 -0.402270 0.000000 
			CHANNELS 1 Zrotation
			JOINT LeftAnkle
			{
				OFFSET 0.000000 -0.404085 0.000000 
				CHANNELS 3 Zrotation Xrotation Yrotation
				End Site
				{
					OFFSET 0.204105 -0.089430 -0.008415 
				}
			}
		}
	}
}
MOTION
Frames: 34
Frame Time: 0.02
0.23297 0.9417 -0.2375 -30.9457 0 -6.08494 3.60676 2.0699 -9.80946 -4.39598 7.96235 -6.06495 24.47541 -84.85195 -28.39648 40.56193 94.42839 7.9912 1.63909 22.21699 10.90872 -58.51437 92.68031 -121.40231 -27.43456 9.76521 18.10478 6.47364 -4.84798 -12.03267 0.65629 -5.00445 -11.03685 -3.77713 -1.03042 -2.41053 -12.0802 12.38772 4.92654 3.03158
0.24244 0.9401 -0.22915 -30.83091 0 -6.06858 3.57867 1.9807 -9.92631 -4.37081 8.26876 -6.14062 27.74232 -85.16133 -25.09642 40.69273 94.78256 7.97603 1.73737 22.09827 10.81347 -58.42176 92.71058 -121.53564 -27.56449 9.76722 17.66465 6.6066 -5.79612 -10.06742 0.92913 -5.02755 -10.72421 -4.38842 -0.9174 -2.35033 -12.36487 12.91514 5.08602 2.98834
0.25242 0.93836 -0.22024 -30.65978 0 -6.07205 3.61738 1.90662 -10.06955 -4.40347 8.59178 -6.21008 30.84922 -85.54797 -21.82816 40.76626 95.07934 7.94988 1.86041 22.0165 10.72137 -58.31792 92.67834 -121.63891 -27.64986 9.76999 17.17522 6.75593 -6.85427 -8.83014 1.45279 -5.06732 -10.15859 -4.98145 -0.77016 -2.30979 -12.76321 13.46309 5.25233 2.93419
0.2622 0.93673 -0.21151 -30.5115 0 -6.07997 3.63135 1.83399 -10.206 -4.41686 8.91738 -6.28338 34.21312 -85.88737 -18.38164 40.85784 95.39189 7.93487 1.96431 21.91631 10.62343 -58.21984 92.65844 -121.77473 -27.7639 9.77521 16.70468 6.91213 -7.78051 -7.29665 1.80337 -5.08701 -9.71052 -5.58368 -0.62153 -2.26276 -13.11527 13.99182 5.41303 2.88691
0.27186 0.9349 -0.20306 -30.37562 0 -6.03099 3.62366 1.72641 -10.31874 -4.4043 9.20006 -6.35162 36.8356 -86.27827 -15.59268 40.98459 95.75245 7.89225 2.10084 21.82734 10.54496 -58.11834 92.70862 -121.83401 -27.84464 9.7689 16.24346 7.00826 -9.05173 -5.61603 2.39723 -5.15573 -9.24319 -6.18577 -0.54491 -2.20457 -13.44072 14.56627 5.58882 2.83485
0.28189 0.93347 -0.19391 -30.20013 0 -6.10383 3.67576 1.69336 -10.48807 -4.45681 9.57649 -6.42929 40.92805 -86.57837 -11.48005 41.02288 96.00035 7.90772 2.17548 21.71993 10.42571 -58.02167 92.59518 -122.0415 -27.98337 9.78608 15.75236 7.23235 -9.6353 -4.41481 2.5514 -5.12925 -8.76336 -6.77962 -0.31086 -2.17555 -13.85455 15.04593 5.73045 2.78699
0.29288 0.93315 -0.183 -29.93105 0 -6.52606 3.88162 1.88498 -10.80345 -4.69121 10.20288 -6.53345 49.39275 -86.63112 -3.39195 40.84422 95.91795 8.0544 2.07424 21.57903 10.20152 -57.93935 92.07032 -122.70092 -28.29182 9.87569 15.20197 7.81686 -8.24398 -4.36414 1.36803 -4.81605 -8.2515 -7.38765 0.36067 -2.2096 -14.43176 15.29326 5.80869 2.77571
0.30424 0.93325 -0.17139 -29.62399 0 -7.06708 4.14415 2.14733 -11.17552 -4.98569 10.92347 -6.64747 59.28825 -86.58625 5.96965 40.57644 95.72924 8.26539 1.90997 21.4129 9.93501 -57.8626 91.37924 -123.5041 -28.65977 9.98761 14.6222 8.5273 -6.16974 -4.77044 -0.25415 -4.40971 -7.74249 -7.9807 1.18769 -2.2739 -15.1051 15.43706 5.84626 2.76391
0.31541 0.93319 -0.16007 -29.33245 0 -7.54229 4.37731 2.36249 -11.52458 -5.24172 11.60462 -6.75797 68.34918 -86.57131 14.54339 40.34014 95.61001 8.46801 1.77372 21.24094 9.68175 -57.78459 90.74655 -124.21809 -29.00139 10.08418 14.04932 9.17329 -4.43429 -4.96404 -1.63561 -4.06023 -7.2778 -8.56071 1.93634 -2.33352 -15.76715 15.60671 5.88051 2.73861
0.32667 0.93299 -0.14885 -29.0447 0 -8.06823 4.62831 2.64084 -11.86385 -5.54713 12.27395 -6.86477 78.18853 -86.61865 24.00169 40.13814 95.3998 8.58343 1.64017 21.14413 9.45208 -57.70107 90.18009 -125.03108 -29.33977 10.20244 13.5013 9.85156 -2.56492 -5.20274 -3.18561 -3.65305 -6.63165 -9.22868 2.71837 -2.35857 -16.29063 15.8703 6.00599 2.77429
0.33782 0.93318 -0.13727 -28.74279 0 -8.51628 4.85446 2.80524 -12.23547 -5.76285 12.98775 -6.98099 86.74136 -86.51372 31.91697 39.84655 95.35427 8.89436 1.48669 20.88331 9.16544 -57.63019 89.44205 -125.67323 -29.69801 10.28125 12.89594 10.49074 -0.83319 -5.44841 -4.48837 -3.33981 -6.34235 -9.70411 3.46779 -2.45875 -17.13134 15.90872 5.93306 2.67878
0.34862 0.93439 -0.1248 -28.39411 0 -8.72144 4.99988 2.62845 -12.69238 -5.7188 13.82093 -7.12687 91.45057 -85.99728 35.2875 39.30993 95.7918 9.74224 1.28497 20.18411 8.71161 -57.59506 88.22731 -125.803 -30.10987 10.24226 12.13346 11.00437 0.54818 -5.5821 -5.03386 -3.34305 -7.2592 -9.70164 4.0845 -2.79313 -18.76189 15.39233 5.31094 2.25911
0.35928 0.93597 -0.112 -28.0361 0 -8.84365 5.11754 2.33623 -13.17787 -5.58166 14.69182 -7.28081 94.80522 -85.33309 37.05608 38.69014 96.39842 10.78201 1.06681 19.31902 8.2052 -57.57178 86.85362 -125.75821 -30.53715 10.16372 11.31574 11.47177 1.73487 -5.70686 -5.31086 -3.4381 -8.49845 -9.49591 4.66318 -3.1967 -20.7193 14.64653 4.49321 1.70196
0.36997 0.93736 -0.0994 -27.69358 0 -9.00306 5.2466 2.10278 -13.64375 -5.48514 15.53251 -7.4271 98.74239 -84.74626 39.54022 38.12143 96.92653 11.72599 0.86173 18.52416 7.73672 -57.54212 85.58223 -125.79556 -30.94907 10.10514 10.52741 11.95161 2.87761 -5.84491 -5.6901 -3.46789 -9.44177 -9.35138 5.26285 -3.54471 -22.56778 13.97647 3.77159 1.18086
0.38082 0.93886 -0.08659 -27.30157 0 -9.16922 5.38337 1.84503 -14.13978 -5.3978 16.43176 -7.59051 102.86986 -84.11401 42.12182 37.49343 97.45847 12.70971 0.63091 17.75003 7.20946 -57.51821 84.18009 -125.82123 -31.39915 10.03777 9.71964 12.47203 4.58837 -5.96089 -6.1666 -3.59163 -11.00169 -9.34092 5.85457 -3.99107 -24.2532 13.41706 3.01559 0.7648
0.39129 0.94022 -0.07415 -27.01172 0 -9.29944 5.49603 1.60972 -14.57879 -5.2685 17.2166 -7.72013 106.2596 -83.5412 44.10287 36.97044 98.02333 13.6538 0.45048 16.89389 6.79024 -57.48333 83.01221 -125.83395 -31.77157 9.98053 8.93998 12.89531 5.07947 -6.11403 -6.37279 -3.5454 -11.37162 -8.99938 6.44899 -4.25427 -26.35363 12.58173 2.28844 0.10549
0.40085 0.94113 -0.06273 -27.00103 0 -9.35519 5.55471 1.46278 -14.85459 -5.04518 17.67698 -7.7531 107.94375 -83.18034 44.81392 36.75747 98.64424 14.45497 0.4149 15.84996 6.70363 -57.43097 82.55298 -125.80035 -31.93585 9.94763 8.24901 13.06074 2.08898 -6.37464 -5.88135 -2.98498 -8.22549 -7.82634 7.08263 -3.94497 -29.52337 10.97733 1.66333 -1.25877
0.41003 0.94189 -0.05172 -27.0955 0 -9.37601 5.58878 1.34234 -15.07101 -4.78274 18.02025 -7.75163 108.92434 -82.88267 44.96958 36.65346 99.29195 15.20681 0.43069 14.72982 6.72382 -57.3648 82.33198 -125.76847 -32.01999 9.92848 7.58902 13.12938 -2.09411 -6.67019 -5.12806 -2.25519 -3.89989 -6.32188 7.71488 -3.45723 -33.09484 9.117 1.07996 -2.84837
0.41933 0.94272 -0.04059 -27.14439 0 -9.40948 5.62995 1.21068 -15.31408 -4.53842 18.41629 -7.76723 110.2206 -82.54893 45.37617 36.50035 99.92341 15.97206 0.4221 13.64581 6.68123 -57.29386 81.98723 -125.77065 -32.13303 9.91189 6.9164 13.24252 -5.6307 -6.94549 -4.50362 -1.61784 -0.21222 -4.94654 8.33282 -3.0848 -36.48423 7.41393 0.49313 -4.29377
0.42884 0.94359 -0.02917 -27.18014 0 -9.45448 5.68719 1.0718 -15.56153 -4.28925 18.81584 -7.77863 111.49041 -82.24108 45.73621 36.34293 100.57713 16.78201 0.41693 12.54919 6.69675 -57.26751 81.70047 -125.62179 -32.27547 9.85751 6.23504 13.35263 -9.62084 -7.23881 -3.82875 -0.9175 3.89852 -3.65139 9.01445 -2.5739 -39.89757 5.5237 -0.17008 -5.92953
0.43783 0.94432 -0.01846 -27.27267 0 -9.46732 5.70577 0.95545 -15.78295 -4.04234 19.17945 -7.78859 112.6623 -81.89615 46.07916 36.22094 101.18958 17.4847 0.41749 11.46351 6.6175 -57.14793 81.35376 -125.78762 -32.34109 9.88466 5.58082 13.44583 -12.93961 -7.50347 -3.19988 -0.30799 7.40728 -2.11751 9.56129 -2.30366 -43.33389 3.97332 -0.65667 -7.20909
0.44545 0.94469 -0.00955 -27.45974 0 -9.40807 5.62081 0.89796 -15.96746 -3.80925 19.47445 -7.8193 113.76743 -81.43541 46.54069 36.17552 101.67255 17.90116 0.41773 10.4224 6.24941 -56.74714 80.76607 -126.8449 -32.18212 10.14231 4.98713 13.52304 -14.17593 -7.67557 -2.76535 0.01821 9.00967 0.03 9.75551 -2.78114 -46.8859 3.35686 -0.709 -7.54979
0.45256 0.94493 -0.00134 -27.70735 0 -9.31667 5.49838 0.86242 -16.1238 -3.58041 19.7365 -7.84676 114.79815 -80.93572 47.0065 36.16157 102.11353 18.21049 0.42265 9.39672 5.78316 -56.25762 80.11416 -128.21542 -31.95406 10.4802 4.42132 13.58548 -14.68249 -7.81858 -2.38692 0.24584 9.95875 2.39789 9.81072 -3.50021 -50.4144 3.10363 -0.57668 -7.507
0.45989 0.94524 0.00716 -27.951 0 -9.23488 5.39521 0.81508 -16.27955 -3.35165 20.01244 -7.86486 115.85016 -80.45301 47.45881 36.12996 102.57921 18.56968 0.4279 8.36745 5.36221 -55.82692 79.50329 -129.42837 -31.77919 10.77572 3.84747 13.65028 -15.48113 -7.97803 -1.98191 0.5133 11.1795 4.64157 9.91714 -4.08115 -53.85717 2.73096 -0.49863 -7.57088
0.46725 0.94553 0.01579 -28.09815 0 -9.1724 5.2821 0.77544 -16.49001 -3.11385 20.28989 -7.92711 116.93345 -79.97468 47.93974 36.1157 103.02365 18.92362 0.42476 7.32036 4.94017 -55.31919 78.84926 -130.70547 -31.51146 11.09624 3.2549 13.73002 -16.48958 -8.1249 -1.57192 0.80795 12.54812 7.00174 10.07399 -4.77151 -57.73366 2.16199 -0.54142 -7.91944
0.47445 0.94583 0.02397 -28.46021 0 -9.0632 5.18067 0.72569 -16.58035 -2.89533 20.55663 -7.89761 117.93851 -79.47814 48.36921 36.07206 103.50021 19.26206 0.4393 6.3158 4.49803 -54.94908 78.26843 -131.9234 -31.41937 11.38404 2.70782 13.77646 -16.87086 -8.29089 -1.18938 1.01987 13.43775 9.16323 10.09282 -5.29871 -60.68032 2.08469 -0.29293 -7.59199
0.48136 0.94621 0.03112 -29.39278 0 -8.82763 5.12458 0.63384 -16.34765 -2.73824 20.81299 -7.61175 118.79074 -78.93303 48.66272 35.93337 104.09007 19.5973 0.50346 5.41938 4.00436 -54.99801 77.89028 -132.90038 -31.84998 11.55761 2.27696 13.73451 -15.70332 -8.51425 -0.86774 1.0309 13.16328 10.75455 9.76464 -5.27396 -61.19489 3.33545 0.74475 -5.39853
0.48814 0.94661 0.03783 -30.54047 0 -8.54741 5.08083 0.5326 -15.9947 -2.5986 21.05805 -7.23503 119.56156 -78.37235 48.90582 35.7647 104.71049 19.91828 0.58464 4.5667 3.49718 -55.18581 77.58953 -133.80672 -32.45614 11.69608 1.89122 13.66006 -13.92313 -8.75813 -0.57326 0.96065 12.4238 12.13045 9.30266 -5.08559 -60.74819 5.05782 2.06176 -2.55615
0.49498 0.94699 0.04472 -31.59448 0 -8.29115 5.02912 0.44131 -15.69637 -2.44556 21.30173 -6.90197 120.34458 -77.82333 49.17038 35.61321 105.30787 20.2373 0.65651 3.69793 3.00866 -55.29814 77.26225 -134.74662 -32.9688 11.85348 1.48636 13.60101 -12.4142 -8.99411 -0.26853 0.92443 11.89195 13.58225 8.90147 -5.00058 -60.65448 6.5279 3.23311 -0.06834
0.50181 0.94741 0.05168 -32.63359 0 -8.01789 4.98648 0.32676 -15.39842 -2.31701 21.5723 -6.55681 121.23149 -77.25267 49.44118 35.44764 105.94402 20.58846 0.73523 2.81347 2.46344 -55.45758 76.89686 -135.69323 -33.53731 12.00158 1.07673 13.5387 -10.91001 -9.22316 0.04292 0.89692 11.35302 15.13543 8.49416 -4.80087 -60.9144 8.17453 4.49672 2.69249
0.50863 0.94775 0.05838 -33.75383 0 -7.77031 4.9278 0.25822 -15.06989 -2.13994 21.7839 -6.21778 121.88089 -76.7251 49.68656 35.30415 106.50524 20.87039 0.80366 1.97212 2.03498 -55.5555 76.62943 -136.60258 -34.03159 12.15907 0.68729 13.47569 -9.26084 -9.47181 0.33504 0.83352 10.72756 16.42263 8.0713 -4.79879 -60.20958 9.55599 5.6236 5.02388
0.51542 0.94792 0.06448 -35.04687 0 -7.60092 4.82691 0.31819 -14.70047 -1.83859 21.84186 -5.89667 121.91996 -76.30999 49.87897 35.22603 106.86944 20.9679 0.83932 1.23726 1.92723 -55.4287 76.61875 -137.44554 -34.28294 12.35565 0.34322 13.41853 -7.35345 -9.77058 0.57673 0.68838 9.97094 17.03199 7.62468 -5.37533 -57.07722 10.13055 6.37736 6.0947
0.52219 0.94802 0.07033 -36.41361 0 -7.45978 4.70878 0.4248 -14.30212 -1.48531 21.83987 -5.58866 121.71858 -75.94089 50.04666 35.17151 107.15434 20.99627 0.86398 0.54465 1.93873 -55.23946 76.70325 -138.24826 -34.45314 12.5616 0.01761 13.36185 -5.32616 -10.08842 0.80084 0.51078 9.14741 17.37888 7.17035 -6.15618 -53.00824 10.41365 6.97019 6.69405
0.52897 0.94814 0.07628 -37.74528 0 -7.30825 4.59527 0.51052 -13.90769 -1.14647 21.86128 -5.28883 121.61082 -75.55765 50.22253 35.10795 107.46414 21.05457 0.89383 -0.1663 1.89955 -55.09304 76.74112 -139.05521 -34.65732 12.75986 -0.31701 13.30523 -3.36255 -10.39692 1.03574 0.35028 8.36175 17.84263 6.72902 -6.84739 -49.36572 10.80033 7.58697 7.45131
